<?xml version="1.0"?><svg xmlns="http://www.w3.org/2000/svg" xmlns:xlink="http://www.w3.org/1999/xlink" viewBox="158 376 1140 212"><path fill="#F1ECE2" d="M563.377 400.127C580.886 400.573 605.123 400.389 622.565 400.161C661.489 398.974 687.825 400.126 676.047 448.052C669.751 473.668 671.309 489.551 644.626 504.693C646.677 522.408 654.577 555.662 658.356 573.972L607.262 573.989L606.293 566.077C604.565 548.226 601.591 528.567 600.621 510.848L589.83 510.907C586.902 528.131 579.639 557.733 577.998 574.006L527.603 573.973C530.89 554.666 535.944 532.699 539.937 513.349L563.377 400.127ZM594.637 480.043C602.82 480.142 610.629 481.035 618.161 478.083C620.345 476.512 622.702 474.705 623.712 472.111C627.65 461.999 637.495 434.155 618.797 433.121C614.255 432.87 608.731 432.928 604.175 432.887C600.994 448.414 597.476 464.496 594.637 480.043Z"></path><path fill="#F1ECE2" d="M972.382 400.029C998.726 400.569 1028.32 400.412 1054.67 400.112L1048.4 510.47C1047.33 531.067 1046.79 553.632 1044.85 574.01L993.746 574.008C994.502 564.03 995.031 554.037 995.331 544.035L985.688 544.013L959.179 543.998C955.544 554.089 951.68 564.095 947.588 574.009L898.348 573.96C921.774 516.397 947.821 457.261 972.382 400.029ZM974.016 505.745L998.81 505.674C999.043 496.411 1002.88 439.229 1001.6 434.852C998.042 444.716 974.447 500.754 974.016 505.745Z"></path><path fill="#F1ECE2" d="M1094.44 400.135C1110.42 400.186 1127.72 400.561 1143.59 400.062C1138.31 424.905 1133.5 449.847 1129.16 474.873C1145.32 451.513 1162.11 424.392 1177.61 400.284C1195.17 400.129 1213.74 400.841 1231.04 400.391C1225.07 410.432 1217.3 421.108 1210.57 430.799L1176.84 479.305C1181.75 501.032 1184.99 524.368 1190.33 545.906C1191.96 555.058 1194.17 564.83 1196.07 573.983C1178.24 574.174 1160.13 573.989 1142.29 573.969C1141.11 570.105 1140.05 566.087 1139.17 562.144C1134.32 540.55 1128.39 518.769 1124.37 497.025C1118.7 521.712 1114.1 548.938 1109.26 573.987L1057.85 573.954C1061.91 558.508 1065.81 536.194 1069.21 520.099L1094.44 400.135Z"></path><path fill="#F1ECE2" d="M701.782 400.063C730.925 400.662 760.284 399.914 789.445 400.253C797.276 400.344 805.465 400.393 813.276 400.099C810.599 411.064 808.057 422.062 805.651 433.09C785.918 432.601 764.266 432.951 744.393 432.915C741.676 443.795 739.475 455.692 737.227 466.741C755.535 466.535 773.845 466.55 792.152 466.788C788.78 479.173 786.386 491.71 782.661 504.224C765.078 503.985 746.973 504.203 729.346 504.195C728.189 511.943 726.24 520.575 724.623 528.312C723.545 533.466 722.569 538.64 721.697 543.832L787.925 543.864C785.556 553.915 783.13 563.952 780.649 573.975C742.768 574.403 704.196 574.022 666.261 574.016C670.356 556.95 673.952 535.742 677.572 518.06L701.782 400.063Z"></path><path fill="#F1ECE2" d="M822.94 400.156L903.939 400.22C918.64 400.243 935.308 400.646 949.888 400.108C946.797 411.601 943.225 422.958 939.181 434.15L901.266 434.281C899.463 446.668 895.891 461.961 893.324 474.4L879.718 540.706C877.579 551.829 875.292 562.923 872.858 573.985L823.682 573.996C834.158 529.236 843.485 479.539 853.161 434.197L815.443 434.182C817.876 422.825 820.375 411.483 822.94 400.156Z"></path><path fill="#F06226" d="M1246.14 400.658C1292.46 401.566 1341.83 400.787 1388.41 400.817L1374.02 442.446C1371.96 443.987 1247.27 443.275 1233.79 443.261C1237.77 429.02 1241.89 414.818 1246.14 400.658Z"></path><path fill="#F1ECE2" d="M254.582 404.664C260.119 403.852 281.345 404.268 288.407 404.276L361.713 404.436C360.955 408.683 360.311 412.95 359.782 417.232L298.532 417.147C281.728 417.142 261.962 416.086 245.614 419.481C215.043 425.831 186.251 450.052 178.923 481.04C174.526 499.007 177.634 517.991 187.531 533.617C200.822 554.705 220.412 564.927 243.911 570.216C263.25 573.276 302.984 571.653 324.62 572.017L321.99 584.245C274.743 581.35 231.167 593.863 192.103 560.432C175.154 546.147 164.703 525.612 163.126 503.499C161.402 479.624 169.662 457.272 185.319 439.359C202.878 419.045 227.801 406.56 254.582 404.664Z"></path><path fill="#F1ECE2" d="M1210.48 528.929L1341.97 528.957C1337.61 542.113 1332.49 555.739 1327.77 568.825C1327.2 570.3 1326.41 571.976 1325.76 573.442C1322.56 574.836 1211.98 573.977 1200.36 573.934C1203.89 562.172 1207.82 541.291 1210.48 528.929Z"></path><path fill="#F1ECE2" d="M1225.55 468.022C1270.15 468.987 1318.12 468.022 1363.07 468.089C1358.41 480.217 1353.96 492.425 1349.72 504.707L1348.88 505.693C1345.57 506.654 1315.08 506.283 1309.9 506.282L1214.73 506.241C1218.02 498.101 1223.02 477.492 1225.55 468.022Z"></path><path fill="#F1ECE2" d="M372.34 404.205C386.359 404.558 403.35 404.338 417.622 404.255C443.429 403.374 469.487 404.564 488.488 424.796C544.726 484.679 491.34 575.86 417.39 583.239C406.751 584.301 396.889 584.002 386.632 584.007L342.187 583.989C339.203 583.905 335.507 584.133 332.471 584.243L334.924 571.902C361.658 571.648 390.574 573.094 417.162 570.867C436.295 569.264 457.823 557.789 471.641 544.49C488.493 528.529 498.189 506.439 498.532 483.228C498.762 465.495 492.999 448.16 480.385 435.425C472.469 427.553 462.638 421.882 451.862 418.972C438.246 415.382 387.172 416.516 369.882 416.521C370.948 412.223 371.598 408.578 372.34 404.205Z"></path><path fill="#F1ECE2" d="M259.907 427.164C265.582 426.438 285.425 426.817 292.108 426.819L356.91 426.875L354.352 438.863C328.418 437.757 301.303 439.637 275.437 438.696C241.74 437.469 206.348 455.277 202.005 491.55C200.378 505.372 204.388 519.267 213.128 530.097C224.433 544.34 240.395 549.854 257.818 551.752C261.48 552.4 276.778 552.183 281.085 552.177L329.246 552.066L326.638 563.495C306.73 563.198 257.008 565.05 240.518 561.312C230.093 558.992 220.315 554.382 211.892 547.816C179.082 522.062 180.372 473.236 211.509 446.644C226.357 433.964 240.816 429.033 259.907 427.164Z"></path><path fill="#F1ECE2" d="M417.682 426.477L420.312 426.446C441.191 426.215 458.829 425.574 475.193 441.512C486.473 452.498 491.264 468.105 491.211 483.509C491.143 503.449 482.167 524.777 467.675 538.593C440.328 564.665 418.026 563.598 384.082 563.554L336.888 563.46C337.877 559.928 338.659 555.741 339.423 552.098L365.759 552.122C398.983 552.236 431.029 556.507 457.87 531.491C478.698 512.08 488.767 473.226 466.735 451.071C461.445 445.812 454.854 442.051 447.635 440.173C435.462 436.992 380.687 438.177 364.971 438.101C365.939 434.987 366.778 430.06 367.445 426.72L417.682 426.477Z"></path><path fill="#F1ECE2" d="M259.967 448.098C267.463 447.424 282.831 447.869 290.947 447.872L351.63 447.92L349.236 459.075L294.936 459.055C275.106 459.015 253.06 456.21 237.37 470.843C230.424 477.273 226.426 486.275 226.313 495.741C225.808 519.597 244.178 530.912 266.063 531.115L333.636 531.173C332.74 535.423 331.737 539.725 330.793 543.972C305.775 543.673 277.504 545.62 252.988 542.718C217.644 538.534 199.838 497.529 221.765 469.098C231.976 455.859 243.69 450.574 259.967 448.098Z"></path><path fill="#F1ECE2" d="M362.592 447.91L411.866 447.806C420.924 447.794 438.348 446.917 445.927 449.063C480.362 458.818 475.979 504.851 454.776 524.807C433.236 545.08 413.308 543.987 387.548 543.978L350.062 543.917L341.648 544.017C342.234 540.249 343.579 534.98 344.435 531.145C358.689 531.174 413.109 532.167 423.339 529.607C431.914 527.404 439.765 522.994 446.11 516.817C463.333 500.203 466.714 464.694 437.317 459.759C428.965 458.357 417.964 459.042 409.324 459.054L360.512 459.169C361.432 455.525 361.987 451.634 362.592 447.91Z"></path></svg>